<svg aria-hidden="true" style="position: absolute; width: 0; height: 0; overflow: hidden;" version="1.1" xmlns="http://www.w3.org/2000/svg" xmlns:xlink="http://www.w3.org/1999/xlink">
<defs>
<symbol id="icon-car" viewBox="0 0 32 32">
<path d="M27 22h-23c-1.104 0-2-0.896-2-2v-5c0-1.104 0.896-2 2-2h1c0 0 1.479-4.5 1.916-6s0.896-2 2.001-2h13.166c1.104 0 1.438 0.312 2 2s1.917 6 1.917 6h1c1.104 0 2 0.896 2 2v5c0 1.104-0.896 2-2 2zM9 20h13v-1h-13v1zM22 13c0-1.104-0.896-2.125-2-2.125s-2 1.021-2 2.125c0 0.026 4 0.026 4 0zM9 18h13v-1h-13v1zM9 16h13v-1h-13v1zM4.062 17c0 1.104 0.896 2 2 2s2-0.896 2-2-0.896-2-2-2-2 0.896-2 2zM23.083 7c-0.25-0.688-0.447-1-1-1h-6.083v1h0.5c0.276 0 0.5 0.224 0.5 0.5s-0.224 0.5-0.5 0.5h-2c-0.276 0-0.5-0.224-0.5-0.5s0.224-0.5 0.5-0.5h0.5v-1h-6.083c-0.553 0-0.751 0.125-1 1-0.251 0.875-1.917 6-1.917 6h11.46c0.023-1.364 1.13-2.643 2.495-2.643s2.472 1.278 2.496 2.643h2.549c0 0-1.667-5.312-1.917-6zM24.938 15.062c-1.104 0-2 0.896-2 2s0.896 2 2 2 2-0.896 2-2-0.896-2-2-2zM7 25.5c0 0.828-0.672 1.5-1.5 1.5s-1.5-0.672-1.5-1.5v-2.5h3v2.5zM27 25.5c0 0.828-0.672 1.5-1.5 1.5s-1.5-0.672-1.5-1.5v-2.5h3v2.5z"></path>
</symbol>
<symbol id="icon-automobile" viewBox="0 0 32 28">
<path d="M7.5 17c0-1.375-1.125-2.5-2.5-2.5s-2.5 1.125-2.5 2.5 1.125 2.5 2.5 2.5 2.5-1.125 2.5-2.5zM8.062 12h15.875l-1.391-5.578c-0.047-0.172-0.359-0.422-0.547-0.422h-12c-0.187 0-0.5 0.25-0.547 0.422zM29.5 17c0-1.375-1.125-2.5-2.5-2.5s-2.5 1.125-2.5 2.5 1.125 2.5 2.5 2.5 2.5-1.125 2.5-2.5zM32 15.5v6c0 0.281-0.219 0.5-0.5 0.5h-1.5v2c0 1.656-1.344 3-3 3s-3-1.344-3-3v-2h-16v2c0 1.656-1.344 3-3 3s-3-1.344-3-3v-2h-1.5c-0.281 0-0.5-0.219-0.5-0.5v-6c0-1.937 1.563-3.5 3.5-3.5h0.438l1.641-6.547c0.484-1.969 2.391-3.453 4.422-3.453h12c2.031 0 3.938 1.484 4.422 3.453l1.641 6.547h0.438c1.937 0 3.5 1.563 3.5 3.5z"></path>
</symbol>
<symbol id="icon-travel-car" viewBox="0 0 20 20">
<path d="M2 14v-3h-1c-0.552 0-1-0.448-1-1v0c0-0.552 0.448-1 1-1v0h1l4-7h8l4 7h1c0.552 0 1 0.448 1 1v0c0 0.552-0.448 1-1 1v0h-1v6c0 0.552-0.448 1-1 1v0h-1c-0.552 0-1-0.448-1-1v0-1h-10v1c0 0.552-0.448 1-1 1v0h-1c-0.552 0-1-0.448-1-1v0-3zM15.86 9l-2.86-5h-6l-2.86 5h11.72zM5.5 14c0.828 0 1.5-0.672 1.5-1.5s-0.672-1.5-1.5-1.5v0c-0.828 0-1.5 0.672-1.5 1.5s0.672 1.5 1.5 1.5v0zM14.5 14c0.828 0 1.5-0.672 1.5-1.5s-0.672-1.5-1.5-1.5v0c-0.828 0-1.5 0.672-1.5 1.5s0.672 1.5 1.5 1.5v0z"></path>
</symbol>
<symbol id="icon-close-black-18dp-2-1" viewBox="0 0 32 32">
<path d="M26.667 7.303l-1.97-1.97-7.808 7.808-7.808-7.808-1.97 1.97 7.808 7.808-7.808 7.808 1.97 1.97 7.808-7.808 7.808 7.808 1.97-1.97-7.808-7.808 7.808-7.808z"></path>
</symbol>
</defs>
</svg>
